<svg xmlns="http://www.w3.org/2000/svg" width="50" height="50" viewBox="0 0 50 50" fill="none"><g clip-path="url(#clip0_158_158)"><path fill-rule="evenodd" clip-rule="evenodd" d="M24.9128 0C34.2446 5.3833 42.6486 7.93864 49.8883 7.33643C51.1596 30.6274 41.7297 44.2708 25.0109 50C8.87213 44.633 -0.673774 31.5796 0.0354772 6.97835C8.52419 7.38525 16.8523 5.71289 24.9128 0ZM15.1706 18.7581C19.5689 14.3311 24.6452 11.9263 28.4501 15.8651C29.4493 15.9098 30.3415 16.2109 31.0864 16.8498C32.6521 18.1925 32.893 20.7031 32.1793 22.6969V24.4385C32.6655 24.7314 32.9778 25.2726 33.1205 25.8952C33.2142 26.2939 33.2365 26.7375 33.1919 27.1566C33.1428 27.592 33.0268 28.007 32.835 28.3529C32.5629 28.8452 32.1481 29.187 31.586 29.2643C31.0374 29.7974 30.4976 30.3711 30.0203 30.9204C29.494 31.5226 29.0434 32.0964 28.7312 32.5643C28.4903 32.9264 28.5661 33.1624 28.6553 33.431C28.6955 33.5653 28.7446 33.7077 28.7713 33.8582C29.7348 34.0454 30.6047 34.196 31.3853 34.3343C35.7345 35.0749 37.4563 35.3719 37.8132 39.4084C44.4061 32.8003 47.7694 22.9452 47.0334 9.38721C40.6368 9.90804 33.1874 7.65381 24.9262 2.889V2.90527C17.7891 7.95898 10.42 9.44824 2.90371 9.0861C2.49778 23.1527 5.88792 32.9468 12.182 39.3962C12.5388 35.3719 14.2562 35.0749 18.6098 34.3343C19.3949 34.2 20.2781 34.0495 21.2417 33.8582C21.2773 33.7402 21.3175 33.6304 21.3621 33.5246C21.4647 33.2642 21.5628 33.0078 21.2684 32.5724C20.9562 32.1045 20.5056 31.5308 19.9793 30.9286C19.502 30.3792 18.9622 29.8055 18.4136 29.2725C17.8515 29.1952 17.4367 28.8534 17.1646 28.361C16.9772 28.0233 16.8568 27.6001 16.8077 27.1647C16.7676 26.7456 16.7899 26.3021 16.8791 25.9033C17.0218 25.2848 17.3296 24.7437 17.8069 24.4548L17.1646 24.1048C16.9951 22.3633 17.4947 19.34 15.1662 18.7663L15.1706 18.7581ZM36.6891 40.4704C36.5374 36.3119 35.1412 36.0718 31.1801 35.3923C30.288 35.2417 29.2709 35.0708 28.1067 34.8267C27.8301 34.7738 27.6472 34.5459 27.6472 34.2977C27.6472 34.0861 27.5892 33.903 27.5357 33.728C27.3707 33.2194 27.2279 32.7677 27.7364 32.0028C28.0799 31.486 28.5617 30.8716 29.1059 30.245C29.6501 29.6183 30.2701 28.9673 30.9035 28.3691C31.0284 28.2471 31.2069 28.1901 31.3764 28.2023H31.3808C31.5459 28.1982 31.6886 28.068 31.8001 27.8687C31.925 27.6489 32.0009 27.3682 32.0321 27.0671C32.0678 26.7537 32.0455 26.4242 31.9786 26.1271C31.8849 25.7121 31.7065 25.3784 31.4567 25.3174C31.1846 25.2523 31.0061 25.0326 31.0061 24.7884V22.2371L30.9883 22.2331C30.8812 21.5169 30.676 20.9106 30.3861 20.4102C30.0114 19.9829 29.4716 19.6248 28.7669 19.1528L28.691 19.0999C28.5438 19.0023 28.3966 18.9046 28.2405 18.8192C25.8897 20.2108 24.7478 19.8853 22.852 20.1742C21.1301 20.4346 19.7384 21.0164 19.0068 22.0825V24.7884C19.0068 25.0488 18.8106 25.2645 18.5474 25.3174C18.311 25.3825 18.1325 25.7121 18.0389 26.119C17.9675 26.416 17.9497 26.7456 17.9853 27.0589C18.0166 27.36 18.0924 27.6408 18.2173 27.8605C18.3288 28.0599 18.4716 28.1942 18.6366 28.1942H18.6723C18.8418 28.1942 19.0024 28.2593 19.1094 28.361C19.7429 28.9632 20.3629 29.6183 20.9071 30.2409C21.4558 30.8675 21.9375 31.4819 22.2765 31.9987C22.8609 32.8735 22.6646 33.374 22.4773 33.8704C22.4237 34.0169 22.3657 34.1553 22.3657 34.2977C22.3657 34.5744 22.1427 34.7982 21.8572 34.8348C20.7108 35.0708 19.7116 35.2376 18.8329 35.3882C14.8628 36.0677 13.4711 36.3037 13.3239 40.4867C16.5713 43.453 20.5012 45.638 25.0154 47.1395C29.5341 45.5892 33.4595 43.3757 36.6891 40.4704Z" fill="#2F2E41"></path></g><defs><clipPath id="clip0_158_158"><rect width="50" height="50" fill="white"></rect></clipPath></defs></svg>